name C:\Users\u0101727\Documents\MyRepositories\upper-imu-dc\Results\main_tracking\Case_10\FLX01_linearAccelerations_groundFrame.mot
datacolumns 4
datarows 105
range 0.51000000 1.55000000
endheader 
time	radius_imu_x	radius_imu_y	radius_imu_z	
          0.51000000	          0.14218765	         11.37323717	          4.33834531	
          0.52000000	          0.23366749	         10.75025627	          2.55410749	
          0.53000000	          0.39558278	         10.43860348	          0.99556040	
          0.54000000	          0.47580587	         10.12956150	          0.26919028	
          0.55000000	          0.69858101	          9.95748808	         -0.25704173	
          0.56000000	          1.00375150	          9.82803566	         -0.29760329	
          0.57000000	          1.19434162	         10.08799023	          0.03820557	
          0.58000000	          1.40516468	         10.13719505	          0.37134277	
          0.59000000	          1.50479176	         10.17574928	          0.59450382	
          0.60000000	          1.46670132	         10.21941144	          0.78529679	
          0.61000000	          1.32002426	         10.27741518	          0.99308013	
          0.62000000	          1.11112065	         10.35330688	          1.21716692	
          0.63000000	          0.88049388	         10.44575881	          1.42279194	
          0.64000000	          0.65577749	         10.54723705	          1.56455104	
          0.65000000	          0.44732635	         10.64677388	          1.61322459	
          0.66000000	          0.24600994	         10.73331380	          1.57208617	
          0.67000000	          0.02557394	         10.79843192	          1.47579120	
          0.68000000	         -0.24833215	         10.83727367	          1.37528697	
          0.69000000	         -0.60389634	         10.84868447	          1.31794274	
          0.70000000	         -1.05009784	         10.83514791	          1.33291397	
          0.71000000	         -1.57261581	         10.80266902	          1.42703381	
          0.72000000	         -2.14011221	         10.76010585	          1.58918053	
          0.73000000	         -2.71570255	         10.71781007	          1.79814719	
          0.74000000	         -3.26697928	         10.68611182	          2.03050160	
          0.75000000	         -3.77079194	         10.67406590	          2.26662234	
          0.76000000	         -4.21356024	         10.68843554	          2.49385560	
          0.77000000	         -4.59076081	         10.73257835	          2.70693757	
          0.78000000	         -4.90741596	         10.80493619	          2.90696762	
          0.79000000	         -5.17771877	         10.89752489	          3.10002833	
          0.80000000	         -5.42153888	         10.99608645	          3.29536089	
          0.81000000	         -5.65828403	         11.08365790	          3.50220808	
          0.82000000	         -5.90056472	         11.14695659	          3.72504295	
          0.83000000	         -6.14998143	         11.18215459	          3.95855085	
          0.84000000	         -6.39684590	         11.19671414	          4.18513012	
          0.85000000	         -6.62484983	         11.20670184	          4.37745538	
          0.86000000	         -6.81928487	         11.23123539	          4.50617721	
          0.87000000	         -6.97487344	         11.28618006	          4.54965596	
          0.88000000	         -7.09927358	         11.37879384	          4.50126213	
          0.89000000	         -7.21090768	         11.50489768	          4.37086500	
          0.90000000	         -7.33240935	         11.65075143	          4.17909775	
          0.91000000	         -7.48346877	         11.79831675	          3.94757602	
          0.92000000	         -7.67593492	         11.93043578	          3.68972045	
          0.93000000	         -7.91193112	         12.03219013	          3.40604115	
          0.94000000	         -8.18371023	         12.08943255	          3.08397768	
          0.95000000	         -8.47351328	         12.08916765	          2.69974974	
          0.96000000	         -8.75323147	         12.02400717	          2.22208753	
          0.97000000	         -8.98496924	         11.89703110	          1.61991261	
          0.98000000	         -9.12585798	         11.73009079	          0.87655610	
          0.99000000	         -9.13962854	         11.54398981	          0.00348720	
          1.00000000	         -9.01308377	         11.40986821	         -0.91149426	
          1.01000000	         -8.76987210	         11.36117397	         -1.79641158	
          1.02000000	         -8.45111580	         11.38581266	         -2.58432885	
          1.03000000	         -8.10997380	         11.47246753	         -3.21996557	
          1.04000000	         -7.79060882	         11.57551800	         -3.66703505	
          1.05000000	         -7.52777890	         11.65338275	         -3.92955788	
          1.06000000	         -7.32718187	         11.67152903	         -4.03360830	
          1.07000000	         -7.16857600	         11.62931431	         -4.03378373	
          1.08000000	         -7.00085102	         11.50716090	         -4.03075563	
          1.09000000	         -6.74702750	         11.24648315	         -4.10570138	
          1.10000000	         -6.39566248	         11.00092512	         -4.31475264	
          1.11000000	         -5.90595811	         10.75368256	         -4.72732229	
          1.12000000	         -5.25863087	         10.51299939	         -5.39330119	
          1.13000000	         -4.44254012	         10.26358020	         -6.31573659	
          1.14000000	         -3.46475270	          9.99015263	         -7.44878141	
          1.15000000	         -2.34870395	          9.68258963	         -8.71017777	
          1.16000000	         -1.13216159	          9.34040782	        -10.00143861	
          1.17000000	          0.13903019	          8.97272299	        -11.22766334	
          1.18000000	          1.41885798	          8.59839146	        -12.31310992	
          1.19000000	          2.66731102	          8.24701196	        -13.21204476	
          1.20000000	          3.85327689	          7.95808891	        -13.91441510	
          1.21000000	          4.95063562	          7.77715279	        -14.43543624	
          1.22000000	          5.94889527	          7.74141774	        -14.81223368	
          1.23000000	          6.39565497	          7.67316490	        -15.19734371	
          1.24000000	          7.19478297	          8.23007658	        -15.32983841	
          1.25000000	          7.75743418	          9.05667773	        -14.97935040	
          1.26000000	          8.05738990	          9.75561580	        -14.32941826	
          1.27000000	          7.94762226	         10.50712488	        -13.27917977	
          1.28000000	          7.19807969	         11.59226161	        -11.88820318	
          1.29000000	          5.47685759	         12.81172429	        -10.43723611	
          1.30000000	          3.73974665	         13.26007057	         -8.73746761	
          1.31000000	          2.10868883	         13.12438242	         -7.03625754	
          1.32000000	          0.72853595	         12.55557471	         -5.47341853	
          1.33000000	         -0.38257863	         11.74192380	         -4.11772802	
          1.34000000	         -1.24553791	         10.82783597	         -2.97798336	
          1.35000000	         -1.89870795	          9.91414381	         -2.02121987	
          1.36000000	         -2.37868052	          9.06830810	         -1.19852063	
          1.37000000	         -2.71318680	          8.33785993	         -0.46772090	
          1.38000000	         -2.92001031	          7.75798636	          0.18820030	
          1.39000000	         -3.00989157	          7.35155081	          0.75099277	
          1.40000000	         -2.99321830	          7.12607961	          1.17348012	
          1.41000000	         -2.88659399	          7.06799018	          1.40645369	
          1.42000000	         -2.72271082	          7.15934551	          1.44142075	
          1.43000000	         -2.50044287	          7.33626555	          1.34704471	
          1.44000000	         -2.27059518	          7.59893382	          1.11770831	
          1.45000000	         -2.22207952	          7.96068123	          1.14387748	
          1.46000000	         -1.85684060	          8.14166776	          1.11278845	
          1.47000000	         -1.86458218	          8.54616717	          1.39904940	
          1.48000000	         -1.92041784	          8.83026444	          1.61441434	
          1.49000000	         -1.93991339	          9.08515826	          1.90766212	
          1.50000000	         -1.95309405	          9.30355122	          2.16702439	
          1.51000000	         -1.93949241	          9.48548331	          2.36050069	
          1.52000000	         -1.89210628	          9.62599181	          2.47123676	
          1.53000000	         -1.81157045	          9.72775333	          2.50345737	
          1.54000000	         -1.70487152	          9.79698412	          2.46954270	
          1.55000000	         -1.57947340	          9.83928199	          2.37161189	
